<svg xmlns="http://www.w3.org/2000/svg" viewBox="0 0 791.16 106.96"><defs><style>.cls-1{fill:#7467ff;}</style></defs><g id="Layer_2" data-name="Layer 2"><g id="Layer_1-2" data-name="Layer 1"><path d="M16.76,38.54V68.08l20.76.11V82.33l-20.87.34C6.27,82.56,0,76.86,0,66.14V38.54"/><path d="M59.43,55.87c1,7.76,6.5,13,14.82,13,7.41,0,12.09-3.19,14.48-7.75l14.37,3.53c-3.65,9.81-13.23,17.79-28.85,17.79-17.9,0-31.47-11.86-31.47-29.76,0-17.67,13.34-29.19,30.67-29.19s30.22,10.72,30.33,28.39v4Zm27.25-10c-1.6-5.7-6.73-9.46-13.23-9.46-6.16,0-11,3.64-13,9.46Z"/><path d="M141.18,67.62c7.07,0,12.43-3.76,14.6-9.24l12.66,6.27c-3,9.92-12.21,17.91-27.26,17.91-17.56,0-31.7-11.75-31.7-29.76,0-17.68,14.37-29.31,31.7-29.31,15,0,24.29,8,27.26,17.9l-12.66,6.27c-2.17-5.47-7.53-9.23-14.6-9.23-9.12,0-15.28,5.7-15.28,14.25C125.9,61.46,131.72,67.62,141.18,67.62Z"/><path d="M176,81.19V0h17V35.81A21.15,21.15,0,0,1,211.08,23.6c18.93,0,22.69,13.8,22.69,25.89v31.7h-17V51.88c0-8.21-3.19-13.22-10.83-13.22-9,0-13,7.41-13,14.48V81.19Z"/><path d="M242.17,81.19V24.74H258V36c3.43-7.75,10.84-12.43,17.45-12.43,8.9,0,16.54,2.74,20.18,12.32,4.11-7.3,12.21-12.32,19.5-12.32,14.71,0,23.27,9.58,23.27,25.2V81.19h-16.2v-29c0-7.19-2.62-13.35-11.4-13.35-8.44,0-12.31,5.25-12.31,13.35v29H282.2v-29c0-7.3-3.19-13.35-11.4-13.35S258.48,44.7,258.48,53V81.19Z"/><path d="M395.27,81.19c-6.5,0-10.61-3.31-10.61-8.44V68.53c-2.28,9.92-11.63,13.8-20.41,13.8-10.15,0-19.73-5.13-19.73-16.19,0-11.41,9.92-16.42,21.33-17.91l18.7-2.62V43.33c0-4.9-5.48-6.16-9.58-6.27-5.93,0-10.49,1.25-11.18,7.75l-16.3-1.48C347.72,29.65,360,23.6,374.28,23.6c19.85,0,26.91,7.64,26.91,19.73V67.16l4.79.12V81.19ZM371.21,57.24c-4.79.8-10.27,2.85-9.7,7.19.34,2.85,3.42,4.22,6.84,4.22a15.15,15.15,0,0,0,3.2-.35c5.93-.68,12.77-4.33,13-10.94V55.08Z"/><path d="M490.93,55.87c1,7.76,6.5,13,14.82,13,7.41,0,12.09-3.19,14.48-7.75l14.37,3.53c-3.65,9.81-13.23,17.79-28.85,17.79-17.9,0-31.47-11.86-31.47-29.76,0-17.67,13.34-29.19,30.67-29.19s30.22,10.72,30.34,28.39v4Zm27.25-10c-1.59-5.7-6.73-9.46-13.23-9.46-6.15,0-10.94,3.64-13,9.46Z"/><path d="M556.47,55.87c1,7.76,6.5,13,14.83,13,7.41,0,12.08-3.19,14.48-7.75l14.37,3.53c-3.65,9.81-13.23,17.79-28.85,17.79-17.91,0-31.48-11.86-31.48-29.76,0-17.67,13.35-29.19,30.68-29.19s30.22,10.72,30.33,28.39v4Zm27.26-10c-1.6-5.7-6.73-9.46-13.23-9.46-6.16,0-11,3.64-13,9.46Z"/><path d="M656,81.19c-6.5,0-10.61-3.31-10.61-8.44V68.53c-2.28,9.92-11.63,13.8-20.41,13.8-10.14,0-19.72-5.13-19.72-16.19,0-11.41,9.92-16.42,21.32-17.91l18.7-2.62V43.33c0-4.9-5.47-6.16-9.58-6.27-5.93,0-10.49,1.25-11.17,7.75l-16.31-1.48c.23-13.68,12.54-19.73,26.8-19.73,19.84,0,26.91,7.64,26.91,19.73V67.16l4.79.12V81.19ZM632,57.24c-4.79.8-10.26,2.85-9.69,7.19.34,2.85,3.42,4.22,6.84,4.22a15,15,0,0,0,3.19-.35c5.93-.68,12.77-4.33,13-10.94V55.08Z"/><path d="M700,69.33c2.73,0,9.8,0,9.69-4.11-.12-4.78-10.38-6.27-17.33-7.86-9.24-2.17-19.73-5.82-19.73-16.54,0-14.71,16.08-17.22,27.25-17.22,12.89,0,26.11,4,27.14,20.07l-15.85,1c-.46-6.61-6.16-8.44-11.86-8.44-2.62,0-9.58.23-9.46,4.56.11,3.08,4.9,4.45,10,5.7,10,2.17,27.37,5.13,27.37,18.25,0,14.71-15.62,17.56-27.37,17.56-12.66,0-27.37-2-28.62-19.84l16-1.71C688,68.08,694.43,69.33,700,69.33Z"/><path d="M728.22,24.74h17.1l13.23,46.07L774.4,24.74h16.76L763.79,107h-16l8.1-25.77H745.09Z"/><rect class="cls-1" x="17.01" y="23.26" width="16.61" height="14.31"/><rect class="cls-1" x="0.24" y="8.41" width="16.61" height="14.31"/><path d="M442.18,64,428.73,81.19H413.45V1.71h16.3V56.9l24.06-32.16h19.05L453,50.29"/><rect class="cls-1" x="453.18" y="65.47" width="15.98" height="15.98"/></g></g></svg>