<?xml version="1.0" standalone="no"?>
<!DOCTYPE svg PUBLIC "-//W3C//DTD SVG 20010904//EN"
 "http://www.w3.org/TR/2001/REC-SVG-20010904/DTD/svg10.dtd">
<svg version="1.0" xmlns="http://www.w3.org/2000/svg"
 width="128.000000pt" height="128.000000pt" viewBox="0 0 128.000000 128.000000"
 preserveAspectRatio="xMidYMid meet">
<metadata>
Created by potrace 1.16, written by Peter Selinger 2001-2019
</metadata>
<g transform="translate(0.000000,128.000000) scale(0.100000,-0.100000)"
fill="#000000" stroke="none">
<path d="M675 1265 c-53 -20 -111 -68 -144 -120 -22 -34 -30 -40 -46 -34 -42
16 -129 9 -170 -14 -41 -23 -85 -86 -85 -122 0 -18 -7 -20 -74 -20 -66 0 -78
-3 -101 -25 -38 -36 -55 -73 -55 -122 0 -77 66 -148 137 -148 59 0 53 34 -9
56 -75 25 -95 116 -39 166 43 39 89 38 136 -3 46 -41 64 -29 57 39 -11 117 93
186 199 132 46 -24 56 -20 75 26 35 84 136 154 223 154 68 0 119 -20 171 -67
59 -53 82 -109 84 -200 1 -75 -4 -72 82 -58 37 6 45 4 75 -23 28 -25 34 -37
34 -72 0 -35 -6 -47 -33 -71 -18 -16 -41 -29 -51 -29 -22 0 -45 -25 -36 -40
10 -17 68 -11 103 10 88 54 97 175 18 249 -19 18 -41 26 -80 29 l-53 4 -6 49
c-12 101 -76 197 -162 242 -52 27 -191 34 -250 12z"/>
<path d="M419 971 c-22 -21 -39 -46 -39 -55 0 -22 27 -31 45 -16 13 11 15 4
15 -53 0 -72 17 -100 45 -77 11 9 15 32 15 78 0 51 3 63 12 54 17 -17 37 -15
45 4 6 15 -71 104 -90 104 -5 0 -27 -17 -48 -39z"/>
<path d="M792 998 c-7 -7 -12 -40 -12 -76 0 -56 -2 -63 -15 -52 -17 14 -45 7
-45 -13 0 -7 20 -32 44 -56 37 -37 47 -41 64 -32 27 14 72 69 72 87 0 20 -27
29 -45 14 -13 -11 -15 -4 -15 52 0 57 -11 88 -30 88 -3 0 -11 -5 -18 -12z"/>
<path d="M230 710 c-16 -16 -20 -33 -20 -93 0 -115 -32 -107 432 -107 461 0
428 -8 428 108 0 120 30 112 -430 112 -377 0 -391 -1 -410 -20z m778 -39 c9
-5 12 -25 10 -57 l-3 -49 -375 0 -375 0 -3 44 c-6 76 -33 71 370 71 200 0 369
-4 376 -9z"/>
<path d="M292 618 l3 -23 220 0 220 0 3 23 3 22 -226 0 -226 0 3 -22z"/>
<path d="M227 452 c-13 -14 -17 -38 -17 -90 0 -119 -28 -112 430 -112 458 0
430 -7 430 114 0 114 32 106 -432 106 -370 0 -396 -1 -411 -18z m791 -86 c2
-32 -1 -52 -10 -57 -15 -10 -708 -12 -732 -3 -12 4 -16 20 -16 53 0 26 3 51 7
54 4 4 173 6 377 5 l371 -3 3 -49z"/>
<path d="M294 375 c-13 -32 7 -35 226 -35 220 0 246 4 220 35 -18 22 -438 22
-446 0z"/>
<path d="M245 208 c-31 -18 -35 -28 -35 -104 0 -112 -31 -104 432 -104 461 0
428 -8 428 106 0 75 -4 85 -37 103 -30 16 -760 15 -788 -1z m764 -52 c7 -8 11
-34 9 -58 l-3 -43 -375 0 -375 0 -3 49 c-2 32 1 52 10 57 7 5 173 9 369 9 297
0 359 -2 368 -14z"/>
<path d="M294 115 c-13 -32 7 -35 226 -35 190 0 219 2 224 16 3 9 4 20 0 25
-3 5 -104 9 -225 9 -183 0 -221 -2 -225 -15z"/>
</g>
</svg>
