<?xml version="1.0" standalone="no"?>
<!DOCTYPE svg PUBLIC "-//W3C//DTD SVG 20010904//EN"
 "http://www.w3.org/TR/2001/REC-SVG-20010904/DTD/svg10.dtd">
<svg version="1.0" xmlns="http://www.w3.org/2000/svg"
 width="128.000000pt" height="128.000000pt" viewBox="0 0 128.000000 128.000000"
 preserveAspectRatio="xMidYMid meet">
<metadata>
Created by potrace 1.16, written by Peter Selinger 2001-2019
</metadata>
<g transform="translate(0.000000,128.000000) scale(0.100000,-0.100000)"
fill="#000000" stroke="none">
<path d="M490 1175 l0 -105 75 0 75 0 0 -66 0 -66 79 66 79 66 101 0 101 0 0
105 0 105 -255 0 -255 0 0 -105z m450 0 l0 -55 -83 0 c-81 0 -85 -1 -125 -36
l-42 -36 0 36 0 36 -75 0 -75 0 0 55 0 55 200 0 200 0 0 -55z"/>
<path d="M427 972 c-15 -2 -43 -19 -62 -38 -33 -33 -35 -39 -35 -102 0 -49 5
-76 20 -100 11 -18 20 -37 20 -42 0 -5 -24 -16 -53 -24 -70 -20 -89 -43 -95
-111 l-4 -55 -39 0 -39 0 0 -65 c0 -58 2 -65 20 -65 19 0 20 -7 20 -160 l0
-160 -90 0 c-89 0 -90 0 -90 -25 l0 -25 640 0 640 0 0 25 0 25 -115 0 -115 0
0 34 c0 18 -2 53 -5 77 -6 43 -5 44 36 64 69 33 79 63 79 242 l0 153 -40 0
c-33 0 -40 3 -40 20 0 24 -20 70 -31 70 -5 0 0 15 11 33 24 38 27 115 6 155
-44 85 -145 101 -210 33 -50 -52 -48 -156 4 -215 l29 -33 -52 -51 c-49 -48
-56 -52 -100 -52 -41 0 -49 3 -57 24 -11 31 -42 51 -97 66 -24 6 -43 15 -43
20 0 5 9 24 20 42 24 40 27 135 6 177 -25 47 -75 70 -139 63z m82 -78 c14 -18
21 -41 21 -71 0 -79 -74 -121 -127 -71 -32 30 -33 111 -1 145 30 33 80 31 107
-3z m481 16 c24 -13 43 -72 35 -110 -23 -104 -155 -83 -155 25 0 31 24 81 42
88 22 9 58 7 78 -3z m-588 -297 c23 -21 83 -21 107 1 14 13 24 14 57 5 61 -17
72 -31 33 -43 -25 -8 -36 -19 -43 -43 l-9 -33 -138 0 -139 0 0 28 c0 54 11 71
54 86 54 19 56 19 78 -1z m613 -249 c-14 -22 -22 -24 -110 -24 -78 0 -95 3
-95 15 0 10 10 15 30 15 29 0 30 2 30 42 0 39 6 48 78 122 l77 81 3 -114 c2
-89 -1 -119 -13 -137z m95 91 c0 -182 -22 -205 -200 -205 -78 0 -100 3 -100
14 0 10 23 15 98 18 150 6 172 31 172 192 0 79 3 96 15 96 12 0 15 -19 15
-115z m-290 -20 c0 -13 -42 -15 -315 -15 -273 0 -315 2 -315 15 0 13 42 15
315 15 273 0 315 -2 315 -15z m-60 -80 c0 -13 -31 -15 -215 -15 l-215 0 0 -30
0 -30 215 0 215 0 0 -115 c0 -114 0 -115 -23 -115 -18 0 -28 10 -42 40 l-18
40 -182 0 -182 0 -18 -40 c-14 -30 -24 -40 -42 -40 -23 0 -23 1 -23 115 l0
115 30 0 c27 0 30 3 30 30 0 27 -3 30 -30 30 -20 0 -30 5 -30 15 0 13 36 15
265 15 229 0 265 -2 265 -15z m150 -184 c0 -15 3 -49 6 -75 l7 -46 -57 0 -56
0 0 75 0 75 50 0 c48 0 50 -1 50 -29z"/>
</g>
</svg>
