<?xml version="1.0" standalone="no"?>
<!DOCTYPE svg PUBLIC "-//W3C//DTD SVG 20010904//EN"
 "http://www.w3.org/TR/2001/REC-SVG-20010904/DTD/svg10.dtd">
<svg version="1.0" xmlns="http://www.w3.org/2000/svg"
 width="128.000000pt" height="128.000000pt" viewBox="0 0 128.000000 128.000000"
 preserveAspectRatio="xMidYMid meet">
<metadata>
Created by potrace 1.16, written by Peter Selinger 2001-2019
</metadata>
<g transform="translate(0.000000,128.000000) scale(0.100000,-0.100000)"
fill="#000000" stroke="none">
<path d="M583 1178 c-6 -7 -13 -26 -17 -41 -6 -26 -8 -27 -29 -12 -33 23 -60
18 -95 -18 -36 -37 -39 -53 -16 -85 9 -13 14 -24 13 -26 -2 -1 -17 -6 -34 -12
-25 -8 -30 -15 -33 -47 l-3 -37 -85 0 c-77 0 -87 -2 -110 -25 l-25 -25 3 -300
c3 -275 2 -300 -14 -300 -28 0 -60 -50 -56 -87 4 -30 2 -32 -31 -35 -25 -2
-37 -9 -39 -21 -3 -16 32 -17 628 -17 596 0 631 1 628 18 -2 11 -14 18 -39 20
-33 3 -35 5 -31 35 4 37 -28 87 -56 87 -16 0 -17 25 -14 304 l3 304 -27 21
c-22 17 -41 21 -105 21 -77 0 -79 1 -79 24 0 41 -11 55 -46 62 -38 7 -40 11
-19 38 22 30 18 49 -18 84 -37 36 -57 39 -91 17 -23 -15 -24 -15 -31 12 -3 15
-11 34 -17 40 -14 17 -103 17 -115 1z m95 -61 c5 -40 43 -56 81 -34 27 16 29
15 49 -6 18 -20 19 -24 6 -41 -30 -42 -11 -86 38 -86 23 0 28 -4 28 -25 0 -23
-4 -25 -45 -25 -42 0 -45 2 -45 28 0 15 -9 42 -20 60 -72 118 -255 85 -276
-50 -6 -37 -7 -38 -51 -38 -40 0 -44 2 -41 23 2 15 11 23 28 25 50 7 65 46 35
88 -13 19 -12 23 10 44 24 23 25 23 45 5 30 -27 71 -11 82 33 8 30 12 33 41
30 27 -2 33 -8 35 -31z m38 -131 c21 -21 34 -44 34 -60 l0 -26 -110 0 -110 0
0 26 c0 16 13 39 34 60 28 28 42 34 76 34 34 0 48 -6 76 -34z m368 -148 c14
-19 16 -64 16 -285 0 -250 -1 -264 -20 -283 -19 -19 -33 -20 -436 -20 -267 0
-422 4 -435 10 -18 10 -19 24 -19 293 0 207 3 286 12 295 9 9 120 12 439 12
l428 0 15 -22z m-702 -645 l13 -28 243 -3 243 -2 17 30 17 30 100 0 c106 0
145 -13 145 -49 0 -41 -4 -41 -520 -41 -516 0 -520 0 -520 41 0 36 39 49 147
49 101 0 102 0 115 -27z"/>
<path d="M212 828 c-17 -17 -17 -529 0 -546 17 -17 839 -17 856 0 9 9 12 82
12 269 0 142 -3 264 -6 273 -5 14 -53 16 -428 16 -315 0 -425 -3 -434 -12z
m828 -268 l0 -250 -400 0 -400 0 0 250 0 250 400 0 400 0 0 -250z"/>
<path d="M310 668 c-65 -45 -67 -88 -5 -88 31 0 35 -3 35 -25 0 -22 -4 -25
-40 -25 -34 0 -40 -3 -40 -21 0 -28 52 -75 91 -83 44 -9 104 10 127 39 20 25
22 25 177 25 153 0 158 -1 187 -25 42 -35 105 -35 148 1 39 33 38 68 -2 72
-20 2 -28 9 -28 23 0 14 7 19 30 19 39 0 41 31 5 64 -43 40 -117 40 -160 0
-25 -23 -31 -24 -179 -24 -143 0 -154 1 -172 21 -47 52 -120 63 -174 27z m139
-53 l38 -35 171 0 c154 0 173 2 189 19 28 29 62 43 85 35 19 -6 19 -7 5 -16
-13 -7 -17 -23 -17 -63 0 -49 2 -55 21 -55 11 0 17 -4 14 -10 -12 -20 -71 -11
-95 15 -23 25 -24 25 -205 25 l-181 0 -22 -29 c-27 -37 -71 -48 -109 -27 l-28
15 28 1 c27 0 27 1 27 65 0 64 0 65 -27 65 -27 1 -27 1 -9 15 33 25 72 18 115
-20z"/>
</g>
</svg>
