<?xml version="1.0" standalone="no"?>
<!DOCTYPE svg PUBLIC "-//W3C//DTD SVG 20010904//EN"
 "http://www.w3.org/TR/2001/REC-SVG-20010904/DTD/svg10.dtd">
<svg version="1.0" xmlns="http://www.w3.org/2000/svg"
 width="128.000000pt" height="128.000000pt" viewBox="0 0 128.000000 128.000000"
 preserveAspectRatio="xMidYMid meet">
<metadata>
Created by potrace 1.16, written by Peter Selinger 2001-2019
</metadata>
<g transform="translate(0.000000,128.000000) scale(0.100000,-0.100000)"
fill="#000000" stroke="none">
<path d="M502 1251 c-113 -42 -206 -139 -238 -249 -24 -81 -16 -202 18 -274
110 -238 416 -300 606 -123 203 188 154 510 -96 632 -76 37 -210 43 -290 14z
m180 -58 c32 -35 42 -54 61 -120 l16 -53 -125 0 c-122 0 -124 0 -123 23 0 33
32 104 63 143 34 43 72 45 108 7z m-183 -31 c-11 -21 -25 -61 -31 -90 l-13
-52 -68 0 c-52 0 -66 3 -61 13 35 59 73 103 117 132 67 45 79 45 56 -3z m313
7 c46 -30 92 -80 117 -126 12 -23 11 -23 -54 -23 -44 0 -67 4 -69 13 -10 34
-44 134 -50 150 -11 24 0 21 56 -14z m-362 -279 l0 -90 -74 0 -74 0 -6 45 c-6
39 0 108 11 128 2 4 35 7 74 7 l69 0 0 -90z m315 0 l0 -85 -131 -3 c-149 -3
-144 -6 -144 88 0 94 -5 91 144 88 l131 -3 0 -85z m200 40 c4 -27 4 -68 0 -90
l-7 -40 -71 0 -72 0 0 90 -1 90 72 0 72 0 7 -50z m-500 -217 c3 -21 17 -61 30
-90 26 -58 22 -59 -45 -17 -48 30 -120 112 -120 136 0 5 29 8 64 8 l64 0 7
-37z m281 -7 c-20 -67 -58 -128 -88 -146 -25 -13 -31 -13 -55 0 -30 17 -79
104 -89 158 l-6 32 125 0 126 0 -13 -44z m184 23 c-29 -53 -150 -159 -181
-159 -5 0 3 24 17 53 13 28 27 69 30 90 l7 37 69 0 c67 0 68 -1 58 -21z"/>
<path d="M12 598 c-9 -9 -12 -82 -12 -269 0 -225 2 -258 16 -263 9 -3 49 -6
89 -6 63 0 76 3 85 19 6 12 10 113 10 260 0 204 -2 242 -16 255 -19 20 -153
23 -172 4z m138 -263 l0 -225 -55 0 -55 0 0 225 0 225 55 0 55 0 0 -225z"/>
<path d="M225 530 c-12 -19 14 -37 60 -43 25 -4 71 -20 104 -36 73 -37 115
-48 261 -65 103 -13 117 -17 137 -41 13 -14 23 -30 23 -34 0 -9 -67 -23 -207
-42 -70 -10 -91 -9 -149 5 -44 11 -70 14 -77 7 -21 -21 4 -39 75 -56 74 -18
75 -18 242 9 93 15 179 25 193 21 21 -5 53 12 171 90 144 95 146 96 165 77 13
-14 16 -25 11 -35 -18 -31 -280 -257 -309 -267 -16 -5 -120 -23 -230 -39
l-200 -29 -119 44 c-65 24 -123 41 -127 38 -5 -3 -9 -13 -9 -22 0 -13 29 -29
113 -60 61 -23 126 -42 143 -42 64 0 445 60 472 74 28 15 263 220 295 258 25
30 22 90 -6 116 -43 40 -75 30 -222 -68 -74 -49 -143 -90 -152 -90 -12 0 -26
16 -38 42 -31 65 -54 76 -197 92 -90 11 -146 23 -190 42 -149 63 -218 79 -233
54z"/>
</g>
</svg>
