<?xml version="1.0" standalone="no"?>
<!DOCTYPE svg PUBLIC "-//W3C//DTD SVG 20010904//EN"
 "http://www.w3.org/TR/2001/REC-SVG-20010904/DTD/svg10.dtd">
<svg version="1.0" xmlns="http://www.w3.org/2000/svg"
 width="128.000000pt" height="128.000000pt" viewBox="0 0 128.000000 128.000000"
 preserveAspectRatio="xMidYMid meet">
<metadata>
Created by potrace 1.16, written by Peter Selinger 2001-2019
</metadata>
<g transform="translate(0.000000,128.000000) scale(0.100000,-0.100000)"
fill="#000000" stroke="none">
<path d="M366 1250 c-48 -42 -58 -81 -57 -218 0 -64 0 -134 -1 -156 -2 -31 4
-43 26 -62 15 -13 34 -24 42 -24 8 0 14 -7 14 -15 0 -25 39 -94 60 -107 28
-18 26 -54 -2 -62 -13 -3 -51 -6 -84 -6 -64 0 -114 -25 -114 -56 0 -8 -12 -19
-28 -25 -37 -14 -82 -58 -98 -96 -19 -43 -20 -393 -2 -411 9 -9 127 -12 469
-12 l458 0 15 22 c22 31 22 141 1 158 -24 20 -34 2 -37 -70 -3 -63 -4 -65 -30
-68 -26 -3 -28 -1 -28 33 0 28 -5 38 -20 42 -19 5 -20 14 -20 118 l0 113 44
11 c25 6 47 11 50 11 3 0 6 -32 6 -71 0 -67 1 -70 23 -67 21 3 22 7 22 88 0
80 2 87 29 115 46 48 66 101 66 180 0 82 -21 135 -72 187 -45 44 -100 70 -163
76 -48 4 -51 6 -72 52 -19 38 -23 64 -23 137 0 81 -2 92 -23 111 -13 12 -32
22 -43 22 -13 0 -26 12 -37 35 -19 39 -41 48 -113 43 -35 -2 -49 -7 -49 -18 0
-11 15 -17 54 -20 30 -3 56 -10 58 -15 13 -38 33 -59 63 -69 l35 -11 3 -87 c1
-49 -1 -88 -5 -88 -16 0 -32 16 -42 43 -12 32 -36 35 -51 7 -22 -41 -61 -51
-198 -48 l-127 3 -3 97 c-3 94 -2 98 26 129 24 27 37 33 85 37 47 4 57 8 57
23 0 17 -8 19 -65 19 -57 0 -68 -3 -99 -30z m384 -368 c0 -37 -6 -51 -40 -89
-22 -25 -45 -63 -51 -83 -14 -44 -47 -57 -110 -40 -77 21 -119 90 -119 198 l0
52 103 0 c78 0 110 4 137 18 32 16 37 16 57 2 17 -11 22 -25 23 -58z m243 -68
c57 -29 107 -85 122 -139 40 -134 -65 -274 -207 -275 -79 0 -85 7 -42 51 30
31 46 39 74 39 77 0 133 65 128 148 -3 41 -6 47 -27 50 -17 3 -36 -8 -66 -38
-40 -40 -65 -46 -65 -16 0 7 14 25 31 42 43 41 52 60 39 84 -8 15 -21 20 -53
20 -78 0 -147 -66 -147 -141 0 -27 -8 -43 -35 -69 -19 -18 -38 -31 -41 -27 -4
4 -9 29 -12 56 -8 88 54 186 138 220 39 15 128 13 163 -5z m-332 -301 c20 -60
97 -129 168 -150 l61 -18 0 -96 c0 -60 -5 -101 -12 -112 -12 -16 -39 -17 -293
-15 l-280 3 -3 200 c-1 110 0 205 2 212 4 10 47 13 175 13 l169 0 13 -37z
m-411 -217 c0 -165 -1 -174 -20 -179 -15 -4 -20 -14 -20 -42 0 -34 -2 -36 -27
-33 l-28 3 -3 145 c-3 158 4 202 44 250 50 59 54 47 54 -144z m678 -238 c-4
-10 -82 -14 -335 -16 -288 -2 -332 0 -337 13 -5 13 35 15 335 15 268 0 340 -3
337 -12z"/>
</g>
</svg>
