<?xml version="1.0" standalone="no"?>
<!DOCTYPE svg PUBLIC "-//W3C//DTD SVG 20010904//EN"
 "http://www.w3.org/TR/2001/REC-SVG-20010904/DTD/svg10.dtd">
<svg version="1.0" xmlns="http://www.w3.org/2000/svg"
 width="128.000000pt" height="128.000000pt" viewBox="0 0 128.000000 128.000000"
 preserveAspectRatio="xMidYMid meet">
<metadata>
Created by potrace 1.16, written by Peter Selinger 2001-2019
</metadata>
<g transform="translate(0.000000,128.000000) scale(0.100000,-0.100000)"
fill="#000000" stroke="none">
<path d="M289 1231 l-29 -29 0 -211 0 -211 -64 0 c-49 0 -69 -5 -90 -21 -26
-20 -26 -21 -26 -159 0 -138 0 -139 26 -159 21 -16 41 -21 90 -21 l64 0 0
-171 0 -171 29 -29 29 -29 287 0 287 0 29 29 c21 21 29 39 29 65 0 32 3 35 32
38 25 2 36 10 46 31 10 21 18 27 30 22 39 -17 49 -14 80 18 29 30 32 38 23 55
-18 34 -13 52 14 52 24 0 25 3 25 60 0 54 -2 60 -20 60 -26 0 -35 22 -20 50
10 19 8 26 -22 57 -31 32 -41 35 -80 18 -12 -5 -20 1 -30 22 -10 21 -21 29
-46 31 l-32 3 0 93 c0 63 4 97 13 104 6 5 54 12 105 14 130 4 132 7 132 183 0
132 0 134 -26 154 -23 18 -41 21 -125 21 -95 0 -98 1 -127 30 l-30 30 -287 0
-287 0 -29 -29z m161 -41 c0 -43 23 -50 155 -50 132 0 155 7 155 50 0 29 1 30
48 30 26 0 54 -5 62 -10 13 -8 12 -10 -3 -10 -10 0 -29 -11 -42 -25 -24 -23
-25 -30 -25 -152 0 -140 8 -165 55 -177 20 -5 25 -13 25 -36 0 -20 5 -30 15
-30 13 0 15 -39 15 -290 l0 -290 -305 0 -305 0 0 110 0 110 33 -37 c40 -43 67
-40 67 7 0 20 5 30 15 30 9 0 27 11 40 25 23 22 25 31 25 125 l0 100 28 0 c20
0 35 -9 50 -30 15 -19 31 -30 47 -30 21 0 25 5 25 30 0 23 5 31 25 36 47 12
55 37 55 177 0 122 -1 129 -25 152 -23 24 -28 25 -173 25 -201 0 -200 0 -205
-148 -1 -64 -4 -28 -5 89 -2 185 -1 198 19 223 18 22 28 26 75 26 53 0 54 0
54 -30z m698 -52 c16 -16 16 -220 0 -236 -7 -7 -44 -12 -96 -12 -46 0 -92 -5
-102 -10 -13 -7 -21 -7 -25 0 -3 5 -19 10 -35 10 -19 0 -33 7 -40 19 -14 28
-13 214 2 229 17 17 279 17 296 0z m-488 -177 c5 -11 10 -61 10 -111 0 -107
-9 -130 -50 -130 -16 0 -33 -7 -38 -16 -8 -14 -10 -14 -21 0 -10 12 -34 16
-100 16 -54 0 -92 5 -99 12 -16 16 -16 220 0 236 8 8 56 12 150 12 126 0 138
-2 148 -19z m-337 -257 c17 -19 36 -27 70 -31 l47 -6 0 -79 c0 -90 -10 -118
-45 -118 -13 0 -30 -7 -38 -15 -13 -13 -16 -13 -27 0 -9 11 -35 15 -99 15 -54
0 -92 5 -99 12 -16 16 -16 220 0 236 7 7 43 12 90 12 73 0 81 -2 101 -26z
m667 -143 c0 -22 43 -42 85 -38 28 2 30 0 27 -31 -4 -37 20 -82 43 -82 8 0 15
-9 15 -20 0 -13 -7 -20 -19 -20 -23 0 -43 -45 -39 -86 3 -27 1 -29 -27 -27
-42 4 -85 -16 -85 -38 0 -12 -7 -19 -20 -19 -17 0 -20 7 -20 40 0 38 1 40 31
40 47 0 99 56 99 107 0 63 -43 112 -97 113 -32 0 -33 2 -33 40 0 33 3 40 20
40 13 0 20 -7 20 -19z m-80 -430 c0 -10 -9 -30 -21 -45 l-20 -26 -264 0 -264
0 -20 26 c-12 15 -21 35 -21 45 0 18 14 19 305 19 291 0 305 -1 305 -19z"/>
<path d="M911 1096 c-31 -33 -27 -78 9 -119 16 -19 43 -40 59 -47 26 -11 34
-9 60 9 71 51 93 120 50 160 -32 30 -149 28 -178 -3z"/>
<path d="M477 930 c-12 -20 -26 -30 -42 -30 -33 0 -48 -33 -43 -92 3 -26 7
-51 10 -53 2 -3 44 -6 93 -7 89 -3 89 -3 103 25 7 15 14 46 15 70 2 41 1 42
-30 45 -27 3 -33 8 -33 26 0 51 -47 61 -73 16z"/>
<path d="M250 681 c-8 -21 -21 -31 -46 -35 -38 -8 -44 -28 -16 -59 9 -11 17
-35 17 -56 0 -33 2 -36 25 -33 32 4 68 4 100 0 23 -3 25 0 25 33 0 21 8 45 18
56 27 31 21 51 -16 58 -22 4 -38 16 -49 36 -22 37 -42 37 -58 0z"/>
</g>
</svg>
