<?xml version="1.0" standalone="no"?>
<!DOCTYPE svg PUBLIC "-//W3C//DTD SVG 20010904//EN"
 "http://www.w3.org/TR/2001/REC-SVG-20010904/DTD/svg10.dtd">
<svg version="1.0" xmlns="http://www.w3.org/2000/svg"
 width="128.000000pt" height="128.000000pt" viewBox="0 0 128.000000 128.000000"
 preserveAspectRatio="xMidYMid meet">
<metadata>
Created by potrace 1.16, written by Peter Selinger 2001-2019
</metadata>
<g transform="translate(0.000000,128.000000) scale(0.100000,-0.100000)"
fill="#000000" stroke="none">
<path d="M52 1234 c-51 -36 -52 -43 -52 -474 0 -440 1 -444 60 -475 43 -22
225 -21 234 1 13 33 -12 44 -105 44 -135 0 -129 -14 -129 285 l0 245 535 0
535 0 0 -118 c0 -118 0 -119 -26 -131 -33 -15 -64 -6 -64 19 0 47 -111 69
-150 30 -11 -11 -20 -26 -20 -34 0 -21 -34 -29 -64 -15 -23 11 -30 10 -53 -7
-15 -11 -36 -32 -47 -47 -17 -24 -19 -32 -9 -58 15 -38 8 -57 -23 -65 -29 -8
-44 -32 -44 -73 l0 -30 -82 -3 c-81 -3 -83 -4 -83 -28 l0 -25 117 -3 c105 -2
117 -5 123 -22 3 -11 1 -28 -4 -39 -17 -31 -13 -48 20 -86 24 -27 39 -35 64
-35 19 0 36 4 40 10 10 15 33 0 54 -36 20 -33 23 -34 81 -34 60 0 61 0 76 36
l15 35 54 -6 c52 -7 56 -6 86 24 30 30 31 34 24 86 l-6 54 35 15 c36 15 36 16
36 76 0 58 -1 61 -34 81 -36 21 -51 44 -36 54 16 10 12 71 -5 85 -13 11 -15
57 -15 302 0 237 -3 294 -15 318 -32 62 -9 60 -580 60 -456 0 -523 -2 -543
-16z m1062 -66 c12 -17 16 -49 16 -135 l0 -113 -535 0 -535 0 0 113 c0 86 4
118 16 135 l15 22 504 0 504 0 15 -22z m-134 -573 c0 -19 9 -28 46 -45 53 -23
75 -25 92 -8 8 8 15 8 26 -1 13 -11 13 -16 1 -35 -13 -20 -13 -28 7 -74 17
-41 27 -52 45 -52 32 0 33 -47 2 -52 -23 -3 -27 -9 -55 -71 -16 -36 -16 -39 2
-58 16 -18 17 -21 1 -36 -15 -16 -18 -15 -36 1 -19 18 -22 18 -58 2 -62 -28
-68 -32 -71 -55 -5 -31 -52 -30 -52 2 0 18 -11 28 -52 45 -46 20 -54 20 -74 7
-19 -12 -24 -12 -35 1 -9 11 -9 18 -1 26 17 17 15 39 -8 92 -17 37 -26 46 -45
46 -20 0 -25 5 -25 24 0 19 6 25 27 28 21 2 31 13 47 52 16 40 17 52 7 68 -10
17 -10 23 2 35 12 12 18 12 35 2 16 -10 28 -9 68 7 39 16 50 26 52 47 3 21 9
27 28 27 19 0 24 -5 24 -25z"/>
<path d="M189 1135 c-52 -28 -58 -109 -11 -145 59 -47 142 -8 142 68 0 67 -73
110 -131 77z"/>
<path d="M409 1135 c-79 -44 -47 -165 43 -165 110 0 121 156 13 175 -17 3 -41
-1 -56 -10z"/>
<path d="M714 1140 c-29 -11 -54 -49 -54 -78 0 -30 25 -78 45 -86 9 -3 82 -6
161 -6 141 0 146 1 169 25 35 34 34 93 -1 126 -24 23 -33 24 -162 26 -75 1
-147 -2 -158 -7z m276 -65 c7 -8 10 -22 6 -30 -4 -12 -28 -15 -135 -15 -113 0
-130 2 -135 17 -13 33 21 43 140 43 86 0 114 -3 124 -15z"/>
<path d="M879 488 c-98 -56 -105 -194 -14 -264 30 -23 48 -28 89 -28 98 0 160
62 160 160 0 119 -131 193 -235 132z m130 -54 c13 -9 29 -32 37 -50 12 -29 12
-39 -1 -69 -29 -71 -116 -80 -165 -17 -63 80 45 194 129 136z"/>
<path d="M381 713 c-16 -31 -55 -219 -48 -236 4 -10 15 -17 26 -17 22 0 24 7
60 160 14 60 16 88 9 97 -15 18 -36 16 -47 -4z"/>
<path d="M181 661 c-23 -27 -41 -57 -41 -66 0 -29 80 -116 104 -113 32 5 31
35 -3 74 l-31 35 22 31 c13 16 27 36 32 43 5 7 6 20 3 29 -12 29 -44 17 -86
-33z"/>
<path d="M497 703 c-15 -14 -6 -41 23 -68 37 -36 37 -44 0 -80 -35 -34 -37
-68 -4 -73 27 -4 104 80 104 113 0 12 -18 43 -41 69 -38 42 -66 56 -82 39z"/>
</g>
</svg>
